<svg xmlns="http://www.w3.org/2000/svg" viewBox="0 0 32 32" fill="black">
  <path d="M16.02 3C9.39 3 4 8.27 4 14.77c0 2.73.96 5.24 2.57 7.24L4 29l7.25-2.38a12.4 12.4 0 004.77.94c6.63 0 12.02-5.27 12.02-11.79C28.04 8.27 22.65 3 16.02 3zm0 21.6c-1.48 0-2.92-.38-4.19-1.1l-.3-.17-4.3 1.4 1.4-4.1-.2-.3a9.2 9.2 0 01-1.47-5.01c0-5.12 4.29-9.29 9.06-9.29s9.06 4.17 9.06 9.29-4.29 9.29-9.06 9.29zm4.97-6.95c-.27-.13-1.6-.77-1.84-.86-.25-.09-.43-.13-.62.13-.18.26-.71.86-.87 1.04-.16.18-.32.2-.6.07-.27-.13-1.14-.41-2.18-1.31-.8-.7-1.35-1.56-1.5-1.82-.16-.26-.02-.4.12-.53.13-.12.27-.31.41-.47.14-.16.18-.26.27-.44.09-.18.04-.33-.02-.47-.07-.13-.62-1.46-.85-2-.23-.53-.46-.46-.62-.47h-.53c-.18 0-.47.07-.72.33-.25.26-.95.93-.95 2.26s.97 2.62 1.11 2.8c.14.18 1.91 2.93 4.63 4.11.65.27 1.16.43 1.55.55.65.2 1.24.17 1.7.1.52-.08 1.6-.64 1.83-1.26.23-.62.23-1.15.16-1.26-.07-.11-.25-.18-.52-.31z"/>
</svg>
